<svg xmlns="http://www.w3.org/2000/svg" xmlns:xlink="http://www.w3.org/1999/xlink" width="256.456" height="310.683" viewBox="0 0 256.456 310.683">
  <defs>
    <linearGradient id="linear-gradient" x1="0.505" y1="1.007" x2="0.505" gradientUnits="objectBoundingBox">
      <stop offset="0" stop-color="gray" stop-opacity="0.251"/>
      <stop offset="0.54" stop-color="gray" stop-opacity="0.122"/>
      <stop offset="1" stop-color="gray" stop-opacity="0.102"/>
    </linearGradient>
  </defs>
  <g id="Group_22" data-name="Group 22" transform="translate(-297.261 -122.601)">
    <g id="Group_2" data-name="Group 2" transform="translate(398.744 122.601)">
      <rect id="Rectangle_76" data-name="Rectangle 76" width="4.57" height="37.66" rx="2.285" transform="translate(150.403 70.477)" fill="#3f3d56"/>
      <rect id="Rectangle_80" data-name="Rectangle 80" width="152.868" height="310.683" rx="20" fill="#3f3d56"/>
      <path id="Path_176" data-name="Path 176" d="M586.578,199H569.042v2.109a10,10,0,0,1-10,10H503.274a10,10,0,0,1-10-10V199H476.855a12.141,12.141,0,0,0-12.141,12.141V481.378a12.141,12.141,0,0,0,12.141,12.141H586.578a12.141,12.141,0,0,0,12.141-12.141V211.162A12.141,12.141,0,0,0,586.578,199Z" transform="translate(-454.986 -190.908)" fill="#fff"/>
      <rect id="Rectangle_81" data-name="Rectangle 81" width="21.347" height="4.332" rx="2.166" transform="translate(61.689 9.278)" fill="#e6e8ec"/>
      <circle id="Ellipse_5" data-name="Ellipse 5" cx="2.46" cy="2.46" r="2.46" transform="translate(86.264 8.984)" fill="#e6e8ec"/>
      <circle id="Ellipse_11" data-name="Ellipse 11" cx="28.918" cy="28.918" r="28.918" transform="translate(48.449 130.237)" fill="#fff"/>
      <path id="Path_222" data-name="Path 222" d="M597.511,448.262A38.65,38.65,0,1,1,558.86,409.61a38.65,38.65,0,0,1,38.651,38.652ZM554.394,468.72l28.671-28.671a2.491,2.491,0,0,0,0-3.528l-3.528-3.5a2.486,2.486,0,0,0-3.523,0L552.63,456.4,541.712,445.46a2.5,2.5,0,0,0-3.528,0l-3.528,3.548a2.5,2.5,0,0,0,0,3.528l16.211,16.2a2.491,2.491,0,0,0,3.528,0Z" transform="translate(-482.107 -293.144)" fill="#c94c4c"/>
    </g>
    <g id="Group_1" data-name="Group 1" transform="translate(297.261 163.392)">
      <rect id="Rectangle_77" data-name="Rectangle 77" width="2.304" height="11.145" rx="1.152" transform="translate(104.917 20.458)" fill="#3f3d56"/>
      <rect id="Rectangle_78" data-name="Rectangle 78" width="2.596" height="19.397" rx="1.298" transform="translate(104.833 40.866)" fill="#3f3d56"/>
      <rect id="Rectangle_79" data-name="Rectangle 79" width="2.471" height="19.564" rx="1.236" transform="translate(104.875 67.05)" fill="#3f3d56"/>
      <path id="Path_190" data-name="Path 190" d="M377.46,474.88a.426.426,0,0,0,.505.065A1.792,1.792,0,0,1,377.46,474.88Z" transform="translate(-303.206 -356.097)" fill="url(#linear-gradient)"/>
      <path id="Path_192" data-name="Path 192" d="M388.051,491l-.5,2.717-.385,2.078-.7,3.8-6.787,4.752s-.612-.524-1.621-1.349a118.26,118.26,0,0,0-12.921-9.457,14.456,14.456,0,0,0-3.551-1.636Z" transform="translate(-294.692 -364.744)" fill="#feb9b9"/>
      <path id="Path_194" data-name="Path 194" d="M376.713,486.708s7.914,1.358,8.377-2.021-4.073-5.206-7.918-5.433-26.921,1.358-26.921,1.358-4.07,5.429,10.63,6.337Z" transform="translate(-288.333 -358.431)" fill="#3f3d56"/>
      <rect id="Rectangle_82" data-name="Rectangle 82" width="41.399" height="49.09" transform="translate(64.287 16.754)" fill="#2f2e41"/>
      <rect id="Rectangle_83" data-name="Rectangle 83" width="41.399" height="49.09" transform="translate(64.287 16.977)" opacity="0.1"/>
      <path id="Path_198" data-name="Path 198" d="M233.056,431.349a6.644,6.644,0,0,0-2.522,1.785c-4.172,4.131-10.148,13.825-10.148,13.825-7.64-9.1.814-16.291,4.418-18.762.876-.6,1.465-.927,1.465-.927Z" transform="translate(-217.289 -330.559)" fill="#feb9b9"/>
      <path id="Path_199" data-name="Path 199" d="M392.3,288.22s2.037,14.251,9.049,17.645S392.3,315.6,392.3,315.6l-21.942-8.15s12.443-4.073,9.953-16.064Z" transform="translate(-299.397 -255.972)" fill="#feb9b9"/>
      <path id="Path_200" data-name="Path 200" d="M336.295,473.16l-.5,2.708-.4,2.086-.7,3.8-6.787,4.747s-.612-.519-1.621-1.344A117.745,117.745,0,0,0,313.36,475.7a14.369,14.369,0,0,0-3.551-1.636Z" transform="translate(-266.917 -355.175)" fill="#feb9b9"/>
      <path id="Path_202" data-name="Path 202" d="M323.967,470.188s7.1.05,7.53-3.339-3.871-5.206-7.53-5.433-25.891,1.464-25.891,1.464-3.154,6.4,10.83,7.308Z" transform="translate(-260.461 -348.864)" fill="#2f2e41"/>
      <path id="Path_204" data-name="Path 204" d="M398.323,523.478c-.31-.153-.621-.311-.927-.463l-.835-1.052-10.945-13.88v.241c-.074,2.318-.862,20.686-7.01,22.383-6.56,1.808-14.473,2.262-18.081-9.953s-10.2-38.91-16.968-40.5L353.626,472s6.667,7.8,9.383,15.262c-.1-.464-4.706-21.974-.927-25.781h33.034s5.1,14.525,8.595,21.72c2.721,5.586,6.806,18.794,9.435,27.732A10.612,10.612,0,0,1,398.323,523.478Z" transform="translate(-285.02 -348.911)" fill="#3f3d56"/>
      <path id="Path_205" data-name="Path 205" d="M417.033,433.582c-5.1,3.018-27.487,1.789-34.77,1.3l-1.984-.144c-.213,0,.032-.121.032-.121l.2-2.054,5.429-13.8,29.068-16.856a25.3,25.3,0,0,0-.737,7.6C414.409,419.507,417.033,433.582,417.033,433.582Z" transform="translate(-304.671 -316.956)" opacity="0.1"/>
      <path id="Path_206" data-name="Path 206" d="M416.752,432.129c-5.1,3.018-27.487,1.789-34.77,1.3L380,433.288l-.329-.028.362-.093,1.789-.463,3.843-15.382,29.068-16.852a25.312,25.312,0,0,0-.737,7.6C414.128,418.059,416.752,432.129,416.752,432.129Z" transform="translate(-304.39 -316.184)" fill="#efefef"/>
      <path id="Path_207" data-name="Path 207" d="M414.335,408.064c-5.911,1.363-18.919,5.362-23.917,15.021-3.333,6.43-6.138,9.188-8.094,10.343l-1.984-.139a1.151,1.151,0,0,0,.032-.121l1.789-.463L386,417.321l29.067-16.852A25.426,25.426,0,0,0,414.335,408.064Z" transform="translate(-304.75 -316.184)" opacity="0.1"/>
      <path id="Path_208" data-name="Path 208" d="M234.966,427.29l6.787,4.07a6.644,6.644,0,0,0-2.522,1.785c-.566-1.651-4.115-3.955-5.73-4.937C234.377,427.619,234.966,427.29,234.966,427.29Z" transform="translate(-225.986 -330.57)" opacity="0.1"/>
      <path id="Path_209" data-name="Path 209" d="M377.193,471.755a.4.4,0,0,1-.463-.065,1.609,1.609,0,0,0,.463.065Z" transform="translate(-302.814 -354.386)" opacity="0.1"/>
      <path id="Path_210" data-name="Path 210" d="M315.563,284.3a13.451,13.451,0,0,1-10.408-3.848s-18.081,5.206-24.2,16.967S233.2,332.257,233.2,332.257s7.242,4.07,6.56,6.106l27.375-15.836s9.735-7.01,12.438-8.595,17.649-11.312,20.816,15.155,0,23.3,0,23.3,4.525,1.586,11.085-11.085,26.916-15.609,26.916-15.609l1.131-13.342s4.038-8.846.927-12.517A7.881,7.881,0,0,1,338.636,296c-.515-3.389,0-9.035,7.2-13.727,11.085-7.242,15.382-13.12,15.382-13.12s.227-4.3-6.56-6.337-34.385-13.12-34.385-13.12l-.927,3.848,21.775,15.368s-10.857,8.808-19.471,8.595C321.654,277.511,323.253,284.071,315.563,284.3Z" transform="translate(-225.824 -235.31)" fill="#c94c4c"/>
      <path id="Path_211" data-name="Path 211" d="M404.264,295.206a44.185,44.185,0,0,1-1.252-5.526l-11.989,3.167a13.143,13.143,0,0,1-.273,6.917,12.893,12.893,0,0,0,13.514-4.558Z" transform="translate(-310.334 -256.756)" opacity="0.1"/>
      <circle id="Ellipse_10" data-name="Ellipse 10" cx="12.893" cy="12.893" r="12.893" transform="translate(71.079 16.982)" fill="#feb9b9"/>
      <path id="Path_213" data-name="Path 213" d="M428.67,507.07s7.464,14.705,5.2,19.225" transform="translate(-330.675 -373.365)" opacity="0.1"/>
      <path id="Path_221" data-name="Path 221" d="M372.613,218.757c3.579.408,6.977,1.942,10.5,2.782a5.211,5.211,0,0,0,2.717.1c1.368-.422,2.48-1.854,3.9-1.813a4.321,4.321,0,0,1,2.364,1.191,29.08,29.08,0,0,1,3.245,2.893c2.429,2.638,3.936,6.189,6.152,9.059s5.376,6.235,8.524,4.919A18.2,18.2,0,0,1,393.6,251.974c-3.027.208-6.129-.422-9.059.463a7.85,7.85,0,0,1-2.286.556c-1.688,0-3.046-1.548-4.1-3.055-2.466-3.542-4.418-7.561-7.195-10.792a5.917,5.917,0,0,0-3.3-2.281,6.1,6.1,0,0,0-3.644,1.025A17.1,17.1,0,0,0,358.7,241.6a7.38,7.38,0,0,0-1.8,6.49c.329,1.233,1.081,2.346,1.094,3.634.028,2.058-1.789,3.56-2.146,5.563a20.85,20.85,0,0,0-.088,2.531c-.158,2.743-1.954,4.988-3.824,6.717a4.822,4.822,0,0,0-1.752,2.424c-.144.709,0,1.455-.093,2.174-.273,1.78-2.049,2.684-3.621,2.916a10.444,10.444,0,0,1-5.433-.644,6.265,6.265,0,0,0,3.041-6.643c-.7-3.672-4.39-6.31-4.073-10.046a11.639,11.639,0,0,1,1.02-3.305,30.285,30.285,0,0,0,1.743-6.263,10.553,10.553,0,0,0-.107-4.993,15.516,15.516,0,0,0-2.253-3.8,21.59,21.59,0,0,1-2.61-5.345,3.76,3.76,0,0,1-.249-1.771,3.653,3.653,0,0,1,1.136-1.831c2.017-2.12,4.172-4.321,6.875-4.928a15.476,15.476,0,0,1,3.9-.148,46.071,46.071,0,0,0,6.782-.288c1.854-.218,4.988-.19,6.56-1.391,1.465-1.122,2.29-2.531,4.093-3.245a12.054,12.054,0,0,1,5.721-.654Z" transform="translate(-281.785 -218.66)" fill="#2f2e41"/>
    </g>
    <path id="Path_224" data-name="Path 224" d="M740.919,130.668S723.245,129.6,725.31,142a3.022,3.022,0,0,0,1.572,3.186s.032-.93,1.818-.609a8.145,8.145,0,0,0,1.921.093,3.981,3.981,0,0,0,2.349-.968h0s4.977-2.056,6.912-10.186c0,0,1.428-1.772,1.372-2.228l-2.986,1.274a5.366,5.366,0,0,1,.219,3.944s-.1-3.866-.67-3.777c-.116,0-1.554.748-1.554.748s1.758,3.753.433,6.479c0,0,.5-4.623-.981-6.209l-2.1,1.247s2.051,3.874.66,7.037c0,0,.358-4.851-1.1-6.739l-1.9,1.488s1.926,3.819.754,6.443c0,0-.158-5.647-1.168-6.074a11.67,11.67,0,0,0-1.921,2.075s1.321,2.791.5,4.237c0,0-.5-3.763-.93-3.782a12.529,12.529,0,0,0-1.833,4.186,9.079,9.079,0,0,1,1.433-4.437,5,5,0,0,0-2.544,1.316s.261-1.763,2.954-1.916a12.729,12.729,0,0,1,1.74-2.009,10.9,10.9,0,0,0-4.3.5s1.428-1.661,4.791-.907l1.86-1.535s-3.529-.47-5.025.048c0,0,1.721-1.47,5.53-.4l2.047-1.223a18.7,18.7,0,0,0-4.8-.416s1.893-1.019,5.4.083l1.465-.656s-2.2-.433-2.851-.5-.679-.246-.679-.246a7.623,7.623,0,0,1,4.14.465A19.137,19.137,0,0,0,740.919,130.668Z" transform="translate(-425.546 187.71)" fill="#3f3d56"/>
  </g>
</svg>
